<?xml version="1.0" encoding="UTF-8"?>
<svg id="Layer_1" xmlns="http://www.w3.org/2000/svg" version="1.1" viewBox="0 0 1062.37 773.09">
  <!-- Generator: Adobe Illustrator 30.5.1, SVG Export Plug-In . SVG Version: 2.1.4 Build 3)  -->
  <path d="M1014.82,394.95l39.23,5.98-42.85-70.05,37.58,1.74-86.06-136.84-36.1,5.15c-75.62,10.79-155.21,38.58-219.44,80.53-36.42,23.79-67.59,53.72-92.95,88.85-5.14,8.19-10.34,15.18-14.32,24.08,52.76-69.74,123.83-115.49,204.54-146.57,49.65-19.64,99.41-29.78,151.32-37.42l65.16,106.91-40.34-1.52c-122.67-4.6-278.16,31.34-367.91,120.37,27.02-20.41,54.57-37.89,85.39-51.85,25.77-11.68,51.37-21.46,78.65-29.4,70.6-20.35,143.18-28.57,217.03-24.68l30.73,52.27c-25.3-3.79-49.39-6.98-74.81-8.93-70.12-5.42-139.86.55-207.88,18.35-51.21,14.39-102.8,34.52-143.13,70.74-4.43-67.41-9.75-132.49-16.63-198.7l-20.49-167.88,105.74-61.74-.04-34.3-136.59,42.79L394.27,0l.08,34.29,105.82,61.94c-17.01,121.84-29.53,242.9-37.11,366.21-16.85-14.85-34.25-26.23-53.51-36.37-28.52-14.63-58.13-25.2-89.18-33.87-68.22-18.12-138.16-24.08-208.55-18.59l-74.41,8.61,30.83-52.17c43.77-1.84,87.52-.45,131.06,6.42,55.59,8.11,108.91,23.01,160.08,45.83,31.82,14.19,60.58,31.92,88.4,52.95-19.68-20.45-42.45-36.32-66.89-50.42-74.64-43.06-161.17-63.35-246.86-68.51-30.69-1.43-60.35-.81-90.95.95l-1.79.34c-.33.06-.16-.69.04-1.32l63.94-104.76c.31-.51,1.95-.94,2.6-.83l58.93,10.44c88.13,18.72,179.66,59.13,246.62,120.08,17.67,16.08,32.37,33.31,47.46,51.96-7.34-15.21-16.74-28.13-27.34-41.09-25.42-31.13-55.9-56.71-90.3-77.66-75.32-46.13-157.14-67.73-244.23-78.77l-73.15,116.24-12.65,20.78,35.61-1.98c.44.08,1.84.34,1.65.64l-.92,1.49L7.86,400.93l38.75-6.01-12.54,22.48L.5,475.7c-.19.33-.71,1.57-.4,1.58.46.02,1.57.02,2.05-.1,33.12-8.56,65.54-16.47,99.52-22.18,62.11-10.43,132.54-13.8,195.15-6.1,56.55,6.57,114.02,21.89,163.63,50.58l-1.89,95.46c-.5,25.2,2.34,49.1,6.2,73.8,5.74,32.18,15.27,64.52,37.32,88.86,10.96,12.1,25.87,19.99,40.93,12.66,19.34-9.42,33.08-32.98,40.87-53.22,7.01-18.24,11.37-36.46,14.2-55.93,3.74-25.72,5.99-50.74,5.29-76.71l-2.29-84.86,29.88-15.36c27.69-12.23,55.67-21.22,85.44-27.5,92.72-19.57,193.79-13.56,286.01,6.65l59.96,14.34-47.55-82.72ZM462.39,467.08c-48.72-29.43-104.72-45.28-161.22-52.69-47.92-6.28-95.18-7.43-143.44-3.21-38.54,3.04-75.02,9.69-113.75,18.3l20.21-37.07c62.4-8.35,124.76-9.52,187.09-1.93,52.53,6.46,103.33,19.18,151.67,40.22,20.74,9.03,39.5,19.37,58.14,31.94,1.12.76,1.71,2.98,1.3,4.44ZM548,703.48c-12,8.08-26.79,6.56-38.16-3.2-16.33-14.02-23.89-42.71-25.44-63.8,29.94,17.89,64.4,17.97,93.58-.07-2.53,24.63-9.87,53.54-29.98,67.07ZM926.47,413.25c-58.31-6.39-116.34-6.54-174.4,2.11-54.34,8.1-106.31,23.62-152.83,51.85l-.38-3.17c18.91-13.25,38.36-24.01,59.65-33.34,42.14-18.29,85.82-30.32,131.44-37.53,68.9-10.39,138.26-10.07,207.44-.85l20.62,37.22c-30.44-6.78-60.29-12.42-91.54-16.29Z"/>
  <g>
    <path d="M99.17,499.57h26.46v87.66h5.4l23.58-87.66h26.46l-27.72,98.75,29.88,110.09h-26.82l-25.38-96.17h-5.4v96.17h-26.46v-208.84Z"/>
    <path d="M231.29,683.66c-2.52.26-5.94.77-8.82.77-21.06,0-35.1-15.47-35.1-53.11v-57.75c0-35.58,14.04-53.37,35.46-53.37,3.06,0,6.3.26,8.46.52v-36.61h23.22v36.61c2.16-.26,5.4-.52,8.1-.52,22.14,0,35.82,18.05,35.82,53.37v57.75c0,37.39-14.04,53.11-32.04,53.11-4.14,0-7.92-.26-11.88-.77v33h-23.22v-33ZM231.29,660.72v-117.31c-1.62-.26-3.6-.52-5.22-.52-10.44,0-14.94,8.51-14.94,30.42v58.27c0,21.14,3.06,29.65,15.84,29.65,1.44,0,3.24-.26,4.32-.52ZM274.85,631.84v-58.53c0-22.43-3.78-30.42-14.76-30.42-1.98,0-3.96.26-5.58.52v117.31c1.26.26,3.24.52,5.04.52,11.7,0,15.3-8.25,15.3-29.39Z"/>
    <path d="M312.11,499.57h26.46v87.66h5.4l23.58-87.66h26.46l-27.72,98.75,29.88,110.09h-26.82l-25.38-96.17h-5.4v96.17h-26.46v-208.84Z"/>
  </g>
  <g>
    <path d="M667.19,499.88h26.46v87.51h5.4l23.58-87.51h26.46l-27.72,98.57,29.88,109.9h-26.82l-25.38-96h-5.4v96h-26.46v-208.47Z"/>
    <path d="M783.29,499.88h28.44l29.16,208.47h-24.66l-5.76-48.13h-25.38l-5.94,48.13h-25.02l29.16-208.47ZM807.59,636.03l-9.9-87.51-9.9,87.51h19.8Z"/>
    <path d="M852.76,499.88h26.28v208.47h-26.28v-208.47Z"/>
  </g>
</svg>